<svg width="200" height="200" viewBox="0 0 200 200" xmlns="http://www.w3.org/2000/svg" xmlns:xlink="http://www.w3.org/1999/xlink">
    <path id="Picture" fill="#708090" fill-rule="evenodd" stroke="none" d="M 42.897507 158 C 33.565575 158 26 150.594543 26 141.649292 L 26 59.350708 C 26 50.35994 33.383759 43 42.715691 43 L 157.419907 43 C 166.570023 43.108047 174.13559 50.405457 174.13559 59.350708 L 174.13559 141.649292 C 174.13559 150.748093 166.570023 158 157.238098 158 L 42.897507 158 Z M 166.642349 134.56398 L 166.642349 59.350708 C 166.829224 54.172195 162.240524 50.085312 156.843491 50.085312 L 43.292091 50.085312 C 37.68145 50.035278 33.49324 54.247498 33.49324 59.350708 L 33.49324 134.56398 L 36.23988 132.082642 L 69.75119 103.960686 C 71.168274 102.843758 72.668381 101.996681 74.252083 101.419724 C 75.835793 100.842506 77.481689 100.554024 79.190353 100.554024 C 80.899017 100.554024 82.524376 100.823875 84.066414 101.363838 C 85.608185 101.903542 87.108574 102.750618 88.567032 103.9048 L 116.822609 126.465538 L 128.387253 117.083832 C 129.679108 116.041428 131.043823 115.250237 132.48175 114.710266 C 133.919647 114.17057 135.367691 113.900711 136.826157 113.900711 C 138.24324 113.900711 139.618683 114.161247 140.952179 114.682594 C 142.28566 115.203659 143.598328 115.985542 144.890457 117.027946 L 166.642349 134.56398 Z M 118.778946 97.348282 C 112.171417 97.348282 106.814919 92.283394 106.814919 86.035316 C 106.814919 79.787506 112.171417 74.722618 118.778946 74.722618 C 125.386467 74.722618 130.742966 79.787506 130.742966 86.035316 C 130.742966 92.283394 125.386467 97.348282 118.778946 97.348282 Z"/>
</svg>
