<svg width="100" height="100" viewBox="0 0 100 100" xmlns="http://www.w3.org/2000/svg" xmlns:xlink="http://www.w3.org/1999/xlink">
    <filter id="filter1" x="0" y="0" width="100" height="100" filterUnits="userSpaceOnUse" primitiveUnits="userSpaceOnUse" color-interpolation-filters="sRGB">
        <feGaussianBlur stdDeviation="3"/>
        <feOffset dx="-0" dy="2" result="offsetblur"/>
        <feFlood flood-color="#000000" flood-opacity="0.5"/>
        <feComposite in2="offsetblur" operator="in"/>
        <feMerge>
            <feMergeNode/>
            <feMergeNode in="SourceGraphic"/>
        </feMerge>
    </filter>
    <path id="Picture" fill="#708090" fill-rule="evenodd" stroke="none" filter="url(#filter1)" d="M 25.199806 75 C 21.223593 75 18 71.844635 18 68.033173 L 18 32.966827 C 18 29.135979 21.146124 26 25.122337 26 L 73.996307 26 C 77.89505 26.046036 81.118645 29.155373 81.118645 32.966827 L 81.118645 68.033173 C 81.118645 71.910057 77.89505 75 73.918839 75 L 25.199806 75 Z M 77.925873 65.014221 L 77.925873 32.966827 C 78.005501 30.760323 76.050316 29.018959 73.75071 29.018959 L 25.367935 29.018959 C 22.977314 28.997643 21.192772 30.792412 21.192772 32.966827 L 21.192772 65.014221 L 22.363079 63.956947 L 36.641811 51.974552 C 37.245613 51.498646 37.884789 51.137718 38.559582 50.891884 C 39.234383 50.645939 39.935677 50.523018 40.663715 50.523018 C 41.391758 50.523018 42.084297 50.637997 42.741341 50.868073 C 43.39827 51.09803 44.037567 51.458958 44.658997 51.950741 L 56.69833 61.563576 L 61.625874 57.566154 C 62.176311 57.121998 62.757805 56.784882 63.370487 56.55481 C 63.983154 56.324852 64.600151 56.209869 65.221581 56.209869 C 65.825378 56.209869 66.411438 56.320881 66.979622 56.543018 C 67.547806 56.765038 68.107109 57.098186 68.657669 57.542343 L 77.925873 65.014221 Z M 57.531898 49.157093 C 54.716515 49.157093 52.434181 46.999012 52.434181 44.336784 C 52.434181 41.674675 54.716515 39.516594 57.531898 39.516594 C 60.347279 39.516594 62.629612 41.674675 62.629612 44.336784 C 62.629612 46.999012 60.347279 49.157093 57.531898 49.157093 Z"/>
</svg>
